<?xml version="1.0" encoding="UTF-8"?>
<svg id="Layer_1" xmlns="http://www.w3.org/2000/svg" version="1.1" viewBox="0 0 1280 1024">
  <!-- Generator: Adobe Illustrator 29.4.0, SVG Export Plug-In . SVG Version: 2.1.0 Build 152)  -->
  <defs>
    <style>
      .st0 {
        font-size: 36px;
      }

      .st0, .st1, .st2 {
        font-family: ArialMT, Arial;
      }

      .st3 {
        fill: gray;
      }

      .st3, .st4, .st5, .st6, .st7, .st8, .st9, .st10, .st11, .st12, .st13 {
        stroke: #000;
        stroke-miterlimit: 10;
      }

      .st4, .st11 {
        fill: #ccc;
      }

      .st1, .st14 {
        font-size: 20.9px;
      }

      .st5, .st7, .st11 {
        stroke-width: 2px;
      }

      .st5, .st9, .st15 {
        fill: #b3b3b3;
      }

      .st6 {
        fill: #999;
      }

      .st7, .st8 {
        fill: #e6e6e6;
      }

      .st10 {
        fill: none;
        stroke-width: 4px;
      }

      .st16 {
        font-family: Arial-ItalicMT, Arial;
        font-style: italic;
      }

      .st12 {
        fill: #666;
      }

      .st13 {
        fill: #4d4d4d;
      }
    </style>
  </defs>
  <g>
    <g>
      <g>
        <g>
          <g>
            <polygon class="st15" points="546.99 423.35 560.41 409.17 697.93 394.71 712.95 405.91 700.59 419.99 563.06 434.44 546.99 423.35"/>
            <path d="M697.79,395.23l14.43,10.76-11.88,13.52-137.15,14.42-15.44-10.65,12.89-13.63,137.15-14.42M698.08,394.19l-137.91,14.49-13.94,14.74,16.7,11.52,137.91-14.49,12.85-14.63-15.61-11.64h0Z"/>
          </g>
          <g>
            <polygon class="st15" points="546.99 450.87 560.41 436.69 697.93 422.23 712.95 433.43 700.59 447.5 563.06 461.96 546.99 450.87"/>
            <path d="M697.79,422.75l14.43,10.76-11.88,13.52-137.15,14.42-15.44-10.65,12.89-13.63,137.15-14.42M698.08,421.71l-137.91,14.49-13.94,14.74,16.7,11.52,137.91-14.49,12.85-14.63-15.61-11.64h0Z"/>
          </g>
          <g>
            <polygon class="st15" points="546.99 478.39 560.41 464.2 697.93 449.75 712.95 460.95 700.59 475.02 563.06 489.48 546.99 478.39"/>
            <path d="M697.79,450.27l14.43,10.76-11.88,13.52-137.15,14.42-15.44-10.65,12.89-13.63,137.15-14.42M698.08,449.23l-137.91,14.49-13.94,14.74,16.7,11.52,137.91-14.49,12.85-14.63-15.61-11.64h0Z"/>
          </g>
          <g>
            <polygon class="st15" points="546.99 505.91 560.41 491.72 697.93 477.27 712.95 488.47 700.59 502.54 563.06 517 546.99 505.91"/>
            <path d="M697.79,477.79l14.43,10.76-11.88,13.52-137.15,14.42-15.44-10.65,12.89-13.63,137.15-14.42M698.08,476.75l-137.91,14.49-13.94,14.74,16.7,11.52,137.91-14.49,12.85-14.63-15.61-11.64h0Z"/>
          </g>
          <g>
            <polygon class="st15" points="546.99 533.43 560.41 519.24 697.93 504.79 712.95 515.98 700.59 530.06 563.06 544.51 546.99 533.43"/>
            <path d="M697.79,505.3l14.43,10.76-11.88,13.52-137.15,14.42-15.44-10.65,12.89-13.63,137.15-14.42M698.08,504.27l-137.91,14.49-13.94,14.74,16.7,11.52,137.91-14.49,12.85-14.63-15.61-11.64h0Z"/>
          </g>
          <g>
            <polygon class="st15" points="546.99 560.95 560.41 546.76 697.93 532.3 712.95 543.5 700.59 557.58 563.06 572.03 546.99 560.95"/>
            <path d="M697.79,532.82l14.43,10.76-11.88,13.52-137.15,14.42-15.44-10.65,12.89-13.63,137.15-14.42M698.08,531.79l-137.91,14.49-13.94,14.74,16.7,11.52,137.91-14.49,12.85-14.63-15.61-11.64h0Z"/>
          </g>
          <g>
            <polygon class="st15" points="546.99 588.46 560.41 574.28 697.93 559.82 712.95 571.02 700.59 585.1 563.06 599.55 546.99 588.46"/>
            <path d="M697.79,560.34l14.43,10.76-11.88,13.52-137.15,14.42-15.44-10.65,12.89-13.63,137.15-14.42M698.08,559.31l-137.91,14.49-13.94,14.74,16.7,11.52,137.91-14.49,12.85-14.63-15.61-11.64h0Z"/>
          </g>
          <g>
            <polygon class="st15" points="546.99 615.98 560.41 601.8 697.93 587.34 712.95 598.54 700.59 612.62 563.06 627.07 546.99 615.98"/>
            <path d="M697.79,587.86l14.43,10.76-11.88,13.52-137.15,14.42-15.44-10.65,12.89-13.63,137.15-14.42M698.08,586.82l-137.91,14.49-13.94,14.74,16.7,11.52,137.91-14.49,12.85-14.63-15.61-11.64h0Z"/>
          </g>
          <g>
            <polygon class="st15" points="546.99 643.5 560.41 629.31 697.93 614.86 712.95 626.06 700.59 640.13 563.06 654.59 546.99 643.5"/>
            <path d="M697.79,615.38l14.43,10.76-11.88,13.52-137.15,14.42-15.44-10.65,12.89-13.63,137.15-14.42M698.08,614.34l-137.91,14.49-13.94,14.74,16.7,11.52,137.91-14.49,12.85-14.63-15.61-11.64h0Z"/>
          </g>
          <g>
            <polygon class="st15" points="546.99 671.02 560.41 656.83 697.93 642.38 712.95 653.58 700.59 667.65 563.06 682.11 546.99 671.02"/>
            <path d="M697.79,642.9l14.43,10.76-11.88,13.52-137.15,14.42-15.44-10.65,12.89-13.63,137.15-14.42M698.08,641.86l-137.91,14.49-13.94,14.74,16.7,11.52,137.91-14.49,12.85-14.63-15.61-11.64h0Z"/>
          </g>
          <g>
            <polygon class="st15" points="546.99 698.54 560.41 684.35 697.93 669.9 712.95 681.09 700.59 695.17 563.06 709.62 546.99 698.54"/>
            <path d="M697.79,670.41l14.43,10.76-11.88,13.52-137.15,14.42-15.44-10.65,12.89-13.63,137.15-14.42M698.08,669.38l-137.91,14.49-13.94,14.74,16.7,11.52,137.91-14.49,12.85-14.63-15.61-11.64h0Z"/>
          </g>
          <g>
            <polygon class="st15" points="546.99 726.06 560.41 711.87 697.93 697.42 712.95 708.61 700.59 722.69 563.06 737.14 546.99 726.06"/>
            <path d="M697.79,697.93l14.43,10.76-11.88,13.52-137.15,14.42-15.44-10.65,12.89-13.63,137.15-14.42M698.08,696.9l-137.91,14.49-13.94,14.74,16.7,11.52,137.91-14.49,12.85-14.63-15.61-11.64h0Z"/>
          </g>
        </g>
        <rect class="st9" x="540.81" y="384.92" width="178.29" height="24.21"/>
        <rect class="st9" x="540.81" y="722.25" width="178.29" height="15.41"/>
      </g>
      <g>
        <rect class="st13" x="522.98" y="342.55" width="213.94" height="42.37"/>
        <g>
          <path class="st6" d="M629.96,342.55c-30.54,0-55.3,2.83-55.3,6.33v29.71c0,3.49,24.76,6.33,55.3,6.33s55.3-2.83,55.3-6.33v-29.71c0-3.49-24.76-6.33-55.3-6.33Z"/>
          <path class="st6" d="M548.82,342.55c-14.27,0-25.83,2.83-25.83,6.33v29.71c0,3.49,11.57,6.33,25.83,6.33s25.83-2.83,25.83-6.33v-29.71c0-3.49-11.57-6.33-25.83-6.33Z"/>
          <path class="st6" d="M711.1,342.55c-14.27,0-25.83,2.83-25.83,6.33v29.71c0,3.49,11.57,6.33,25.83,6.33s25.83-2.83,25.83-6.33v-29.71c0-3.49-11.57-6.33-25.83-6.33Z"/>
        </g>
      </g>
      <rect class="st4" x="502.3" y="318.89" width="255.32" height="23.66"/>
      <g>
        <rect class="st3" x="543.52" y="308.46" width="172.87" height="11.31"/>
        <rect class="st3" x="543.52" y="196.42" width="172.87" height="11.31"/>
        <g>
          <g>
            <path class="st4" d="M614.76,258.1v-49.25c0-5.17-13.49-9.35-30.13-9.35s-30.13,4.19-30.13,9.35v49.25"/>
            <path class="st4" d="M614.76,258.1v49.25c0,5.17-13.49,9.35-30.13,9.35s-30.13-4.19-30.13-9.35v-49.25"/>
          </g>
          <g>
            <path class="st4" d="M705.42,258.1v-49.25c0-5.17-13.49-9.35-30.13-9.35s-30.13,4.19-30.13,9.35v49.25"/>
            <path class="st4" d="M705.42,258.1v49.25c0,5.17-13.49,9.35-30.13,9.35s-30.13-4.19-30.13-9.35v-49.25"/>
          </g>
        </g>
      </g>
      <rect class="st12" x="624.47" y="141.13" width="10.97" height="99.61" transform="translate(439.02 820.89) rotate(-90)"/>
    </g>
    <rect class="st8" x="543.52" y="207.73" width="10.97" height="99.61"/>
    <rect class="st8" x="705.61" y="207.73" width="10.97" height="99.61"/>
    <rect class="st8" x="614.76" y="208.85" width="30.4" height="98.5"/>
  </g>
  <path class="st13" d="M857.09,28.66v71.46h-236.31c-8.08,0-14.62,6.55-14.62,14.62v70.72h47.6v-37.74h236.31c8.08,0,14.62-6.55,14.62-14.62V28.66h-47.6Z"/>
  <rect class="st9" x="849.46" y="28.66" width="64.6" height="9.4"/>
  <g>
    <g>
      <line class="st15" x1="1037.95" y1="35.13" x2="1037.95" y2="422.46"/>
      <g>
        <line class="st10" x1="1037.95" y1="49.48" x2="1037.95" y2="422.46"/>
        <polygon points="1027.97 52.4 1037.95 35.13 1047.92 52.4 1027.97 52.4"/>
      </g>
    </g>
    <text class="st14" transform="translate(980.07 136.02) rotate(90)"><tspan class="st2"><tspan x="0" y="0">Connect to component XYZ</tspan></tspan><tspan class="st16"><tspan x="55.75" y="50.15">(Cont. page 18)</tspan></tspan></text>
  </g>
  <line class="st5" x1="521.15" y1="734.47" x2="346.52" y2="734.47"/>
  <line class="st5" x1="560.48" y1="182.26" x2="346.52" y2="182.26"/>
  <g>
    <line class="st15" x1="390.49" y1="184.52" x2="390.49" y2="732.21"/>
    <g>
      <line class="st10" x1="390.49" y1="195.03" x2="390.49" y2="721.7"/>
      <polygon points="402.63 196.66 378.34 196.66 390.49 184.52 402.63 196.66"/>
      <polygon points="402.63 720.07 378.34 720.07 390.49 732.21 402.63 720.07"/>
    </g>
  </g>
  <text class="st1" transform="translate(331.56 385.32) rotate(90)"><tspan x="0" y="0">1.56”</tspan><tspan x="-20.89" y="25.08">(39,6mm)</tspan></text>
  <text/>
  <polygon class="st11" points="668.02 761.77 579.98 761.77 535.96 838.01 579.98 914.25 668.02 914.25 712.04 838.01 668.02 761.77"/>
  <circle class="st5" cx="624" cy="838.01" r="71.26"/>
  <circle class="st7" cx="624" cy="838.01" r="61.64"/>
  <g>
    <g>
      <circle class="st11" cx="596.04" cy="814.74" r="5.48"/>
      <circle class="st11" cx="651.96" cy="814.74" r="5.48"/>
      <circle class="st11" cx="596.38" cy="861.28" r="5.48"/>
      <circle class="st11" cx="651.96" cy="861.28" r="5.48"/>
    </g>
    <circle class="st11" cx="624.17" cy="838.01" r="5.48"/>
  </g>
  <line class="st11" x1="535.96" y1="942.06" x2="535.96" y2="855.79"/>
  <line class="st11" x1="711.1" y1="942.06" x2="711.1" y2="855.79"/>
  <g>
    <line class="st15" x1="705.42" y1="923.84" x2="540.81" y2="923.84"/>
    <g>
      <line class="st10" x1="694.9" y1="923.84" x2="551.33" y2="923.84"/>
      <polygon points="693.28 935.99 693.28 911.69 705.42 923.84 693.28 935.99"/>
      <polygon points="552.96 935.99 552.96 911.69 540.81 923.84 552.96 935.99"/>
    </g>
  </g>
  <text class="st1" transform="translate(600.35 963)"><tspan x="0" y="0">0.65”</tspan><tspan x="-20.89" y="25.08">(19,1mm)</tspan></text>
  <text class="st0" transform="translate(836.05 563.05)"><tspan x="0" y="0">Created by Max Laak</tspan><tspan x="91.01" y="86.4">4/12/2025</tspan></text>
</svg>